<?xml version="1.0" encoding="UTF-8" standalone="no"?>
<svg
   width="24"
   height="24"
   viewBox="0 0 24 24"
   fill="none"
   version="1.1"
   id="svg3"
   sodipodi:docname="HackerNews.svg"
   xmlns:inkscape="http://www.inkscape.org/namespaces/inkscape"
   xmlns:sodipodi="http://sodipodi.sourceforge.net/DTD/sodipodi-0.dtd"
   xmlns="http://www.w3.org/2000/svg"
   xmlns:svg="http://www.w3.org/2000/svg">
  <defs
     id="defs3" />
  <sodipodi:namedview
     id="namedview3"
     pagecolor="#ffffff"
     bordercolor="#000000"
     borderopacity="0.25"
     inkscape:showpageshadow="2"
     inkscape:pageopacity="0.0"
     inkscape:pagecheckerboard="0"
     inkscape:deskcolor="#d1d1d1" />
  <path
     d="M3.83398 5.75004C3.83398 5.24171 4.03592 4.7542 4.39536 4.39475C4.75481 4.03531 5.24232 3.83337 5.75065 3.83337L17.2507 3.83337C17.759 3.83337 18.2465 4.03531 18.6059 4.39475C18.9654 4.7542 19.1673 5.24171 19.1673 5.75004V17.25C19.1673 17.7584 18.9654 18.2459 18.6059 18.6053C18.2465 18.9648 17.759 19.1667 17.2507 19.1667H5.75065C5.24232 19.1667 4.75481 18.9648 4.39536 18.6053C4.03592 18.2459 3.83398 17.7584 3.83398 17.25L3.83398 5.75004Z"
     stroke="currentColor"
     stroke-width="1.25"
     stroke-linecap="round"
     stroke-linejoin="round"
     id="path1" />
  <path
     d="M7.66602 6.70831L11.4993 12.4583L15.3327 6.70831"
     stroke="currentColor"
     stroke-width="1.25"
     stroke-linecap="round"
     stroke-linejoin="round"
     id="path2" />
  <path
     d="M11.5 16.2916V12.4583"
     stroke="currentColor"
     stroke-width="1.25"
     stroke-linecap="round"
     stroke-linejoin="round"
     id="path3" />
</svg>
