<?xml version="1.0" encoding="UTF-8" standalone="no"?>
<svg
   width="24"
   height="24"
   viewBox="0 0 24 24"
   fill="none"
   version="1.1"
   id="svg6"
   sodipodi:docname="Reddit.svg"
   xmlns:inkscape="http://www.inkscape.org/namespaces/inkscape"
   xmlns:sodipodi="http://sodipodi.sourceforge.net/DTD/sodipodi-0.dtd"
   xmlns="http://www.w3.org/2000/svg"
   xmlns:svg="http://www.w3.org/2000/svg">
  <defs
     id="defs6" />
  <sodipodi:namedview
     id="namedview6"
     pagecolor="#ffffff"
     bordercolor="#000000"
     borderopacity="0.25"
     inkscape:showpageshadow="2"
     inkscape:pageopacity="0.0"
     inkscape:pagecheckerboard="0"
     inkscape:deskcolor="#d1d1d1" />
  <path
     d="M11.5007 7.66669C14.0383 7.66669 16.3192 8.45827 17.8975 9.71752C18.4375 9.52825 19.0273 9.53847 19.5604 9.74632C20.0935 9.95418 20.5346 10.3459 20.8039 10.8508C21.0732 11.3556 21.153 11.9401 21.0287 12.4986C20.9045 13.0572 20.5845 13.5528 20.1266 13.8959C20.1266 17.3363 16.2645 20.125 11.5016 20.125C6.82973 20.125 3.02515 17.4417 2.87661 14.0933L1.91828 13.8959C1.46037 13.5528 1.14036 13.0572 1.01614 12.4986C0.891913 11.9401 0.97167 11.3556 1.24099 10.8508C1.5103 10.3459 1.95139 9.95418 2.48446 9.74632C3.01754 9.53847 3.6074 9.52825 4.14736 9.71752C5.72478 8.45923 8.00561 7.66669 10.5433 7.66669H11.5007Z"
     stroke="currentColor"
     stroke-width="1.25"
     stroke-linecap="round"
     stroke-linejoin="round"
     id="path1" />
  <path
     d="M11.5 7.66667L12.4583 2.875L18.2083 3.83333"
     stroke="currentColor"
     stroke-width="1.25"
     stroke-linecap="round"
     stroke-linejoin="round"
     id="path2" />
  <path
     d="M17.25 3.83333C17.25 4.0875 17.351 4.33125 17.5307 4.51098C17.7104 4.6907 17.9542 4.79167 18.2083 4.79167C18.4625 4.79167 18.7063 4.6907 18.886 4.51098C19.0657 4.33125 19.1667 4.0875 19.1667 3.83333C19.1667 3.57917 19.0657 3.33541 18.886 3.15569C18.7063 2.97597 18.4625 2.875 18.2083 2.875C17.9542 2.875 17.7104 2.97597 17.5307 3.15569C17.351 3.33541 17.25 3.57917 17.25 3.83333Z"
     stroke="currentColor"
     stroke-width="1.25"
     stroke-linecap="round"
     stroke-linejoin="round"
     id="path3" />
  <path
     d="M8.62565 12.9375C8.89029 12.9375 9.10482 12.723 9.10482 12.4584C9.10482 12.1937 8.89029 11.9792 8.62565 11.9792C8.36101 11.9792 8.14648 12.1937 8.14648 12.4584C8.14648 12.723 8.36101 12.9375 8.62565 12.9375Z"
     fill="#8F8F80"
     stroke="currentColor"
     stroke-width="1.25"
     stroke-linecap="round"
     stroke-linejoin="round"
     id="path4" />
  <path
     d="M14.3757 12.9375C14.6403 12.9375 14.8548 12.723 14.8548 12.4584C14.8548 12.1937 14.6403 11.9792 14.3757 11.9792C14.111 11.9792 13.8965 12.1937 13.8965 12.4584C13.8965 12.723 14.111 12.9375 14.3757 12.9375Z"
     fill="#8F8F80"
     stroke="currentColor"
     stroke-width="1.25"
     stroke-linecap="round"
     stroke-linejoin="round"
     id="path5" />
  <path
     d="M9.58398 16.2917C10.2232 16.6108 10.8614 16.7709 11.5007 16.7709C12.1399 16.7709 12.7781 16.6108 13.4173 16.2917"
     stroke="currentColor"
     stroke-width="1.25"
     stroke-linecap="round"
     stroke-linejoin="round"
     id="path6" />
</svg>
