<svg class="translate-y-0.1" width="24" height="24" viewBox="0 0 24 24"
     fill="none" xmlns="http://www.w3.org/2000/svg">
    <path d="M1.99707 7.66671C1.99707 6.65004 2.41777 5.67502 3.16661 4.95613C3.91545 4.23724 4.9311 3.83337 5.99013 3.83337H17.9693C19.0283 3.83337 20.044 4.23724 20.7928 4.95613C21.5417 5.67502 21.9623 6.65004 21.9623 7.66671V15.3334C21.9623 16.35 21.5417 17.3251 20.7928 18.0439C20.044 18.7628 19.0283 19.1667 17.9693 19.1667H5.99013C4.9311 19.1667 3.91545 18.7628 3.16661 18.0439C2.41777 17.3251 1.99707 16.35 1.99707 15.3334V7.66671Z"
          stroke="currentColor" stroke-width="1.25" stroke-linecap="round" stroke-linejoin="round"></path>
    <path d="M9.98242 8.625L14.9737 11.5L9.98242 14.375V8.625Z" stroke="currentColor" stroke-width="1.25"
          stroke-linecap="round" stroke-linejoin="round"></path>
</svg>